<svg xmlns="http://www.w3.org/2000/svg" width="296.934" height="268.94" stroke-linecap="round" stroke-linejoin="round" class="tl-container tl-theme__force-sRGB tl-theme__light" data-color-mode="light" style="background-color:#f9fafb" viewBox="643.066 -87.798 296.934 268.94"><path fill="#1d1d1d" d="m741.69-15.118-3.032.599-7.087 1.605-8.444 2.428-8.155 2.79-7.692 2.833-7.325 2.97-6.789 3.16-4.635 5.777-1.81 8.27-1.011 8.606-.986 8.237.05 7.689 4.138 5.901 7.747 4.57 7.063 4.757 7.6 3.403 8.99 2.432 8.197 2.247 7.383 1.824 7.26.822 7.234.476 3.416.435a9.227 9.227 0 0 1-1.83 18.363l-5.124-.517-8.716-.91-8.477-1.755-9.215-2.266-9.03-2.048-8.76-2.542-7.247-3.596-6.677-4.11-6.587-3.91-6.774-5.025-5.759-6.924-2.818-8.564-.18-8.244.899-7.431.77-8.357 1.391-9.006 2.325-8.258 3.66-7.204 5.266-5.544 7.377-4.004 8.839-3.698 8.424-3.219 7.991-2.752 7.632-2.175 7.369-1.681 6.747-1.522 3.013-.696a8.061 8.061 0 0 1 3.378 15.764Zm2.75 87.3.803-1.636.821-6.402-.535-8.296-1.38-8.123-1.738-8.447-1.911-7.844-2.202-8.451-1.928-8.027-1.541-7.412-1.751-8.475-1.12-8.376-.634-7.92-.451-4.171a9.267 9.267 0 0 1 18.254-3.204l.578 5.625.755 9.466 1.127 7.947 1.71 8.131 1.656 7.562 1.748 6.943 1.976 8.43 2.034 8.653 1.83 8.428 1.365 8.277.687 7.445-.205 7.476-1.75 6.667-1.304 3.16a9.227 9.227 0 0 1-16.894-7.426Z"/><path fill="#1d1d1d" d="m723 11.768-2.374.026-5.5-.01-3.126-.037a7.747 7.747 0 0 1 0-15.494l3.126-.036 5.5-.01 2.374.025a7.768 7.768 0 0 1 0 15.536Z"/><path fill="#1d1d1d" d="m720.538 3.498.188 3.24.314 7.512.125 4.272a7.181 7.181 0 0 1-14.33.956l-.443-4.252-.687-7.487-.243-3.237a7.555 7.555 0 0 1 15.076-1.004Z"/><path fill="#1d1d1d" d="m702.067-2.088 5.604-1.118 5.605-1.117a6.554 6.554 0 0 1 3.448 12.646l-5.395 1.883-5.396 1.882a7.347 7.347 0 0 1-3.866-14.176ZM736.372-34.884l2.6-.832 5.874-2.012 7.563-2.267 8.802-1.376 9.9-.343 9.463.308 8.776.531 8.602.037 7.5-.36 7.914-.784 7.878-1.123 7.28-.686 8.598-.131 9.115-.061 8.187.226 7.851 1.227 7.313 1.903 7.606 2.58 7.892 3.33 6.688 3.528 8.59 5.508 8.94 6.231 3.336 2.55a8.316 8.316 0 0 1-9.28 13.8l-3.62-2.127-7.916-4.727-8.854-5.065-8.909-4.489-7.707-2.898-7.648-2.184-8.151-1.367-7.698-.078-8.841.021-9.108.477-8.26.852-8.615.572-9.367.382-9.944.18-10.713-.341-10.016-.339-8.22.107-8.432 1.683-7.133 2.43-2.58.895a8.31 8.31 0 0 1-5.256-15.768Z"/><path fill="#1d1d1d" d="m796.646-11.757 2.591.205 7.882.49 5.29.285a7.787 7.787 0 0 1-.817 15.554l-5.53-.284-8.119-.51-2.59-.226a7.784 7.784 0 0 1 1.293-15.514ZM826.204-40.104l3.095-2.282 7.973-6.325 9.557-7.2 10.16-4.888 10.218-2.223 8.629-.47 7.78.64 8.5 2.397 8.353 4.664 6.457 6.922 2.572 9.877-1.72 9.07-5.422 7.801-3.848 4.568a8.487 8.487 0 0 1-13.016-10.894l2.807-3.384 3.046-7.1-3.699-5.558-7.76-2.59-7.324-.638-7.054.457-6.773 1.882-7.452 4.697-6.91 5.505-5.628 4.813-2.95 2.467a7.762 7.762 0 0 1-9.59-12.208ZM760.633 67.256l2.39 1.84 5.558 4.722 7.171 6.796 6.628 6.47 6.067 4.365 6.894 4.29 6.1 4.724 5.684 4.792 5.556 5.347 5.575 5.49 6.214 4.714 6.907 3.812 8.683 4.221 10.475 3.134 10.703 1.386 9.679 1.647 7.962 1.585 7.074 1.254 8.283 1.3 4.656.675a9.455 9.455 0 0 1-3.162 18.643l-5.705-.982-9.601-1.379-7.334-1.024-7.214-1.43-7.28-1.023-7.637-1.512-7.973-1.713-7.253-1.89-6.861-3.23-6.731-2.989-6.156-3.395-5.846-4.239-5.418-4.547-5.786-5.718-6.703-6.301-7.174-5.776-6.737-4.568-6.025-4.71-5.282-5.631-4.86-5.057-5.751-5.004-4.743-4.019-1.67-1.3a8.702 8.702 0 0 1 10.643-13.77Z"/></svg>