<svg xmlns="http://www.w3.org/2000/svg" width="485.306" height="322.085" stroke-linecap="round" stroke-linejoin="round" class="tl-container tl-theme__force-sRGB tl-theme__light" data-color-mode="light" style="background-color:#f9fafb" viewBox="624.052 286.135 485.306 322.085"><path fill="#1d1d1d" d="m721.487 353.924-1.369.221-2.97.516-3.403.647-4.682 1.08-5.688 1.478-4.484 1.334-3.653 1.157-3.854 1.261-3.927 1.326-3.98 1.376-4.174 1.585-3.58 1.58-2.845 1.425-3.468 1.817-2.851 2.454-1.454 2.707-1.112 3.291-1.059 3.93-.879 3.534-.645 4.122-.634 5.697-.533 5.489-.489 4.391-.44 4.27.041 3.916.728 3.271 1.467 2.718 2.109 2.349 3.328 2.249 3.733 2.181 3.063 1.507 2.883 1.5 3.287 2.383 3.816 2.558 3.28 1.908 2.976 1.134 3.831 1.239 4.648 1.527 4.335 1.298 3.879.906 3.645.947 3.987 1.005 3.8.683 3.266.119 3.373-.058 3.569.228 3.93.389 1.914.118a3.226 3.226 0 0 1-.196 6.45l-2.045-.147-3.854-.536-3.408-.46-3.04-.197-2.967-.403-3.393-.954-3.259-1.012-2.843-.82-3.428-.888-4.096-.791-4.456-.982-4.807-.99-4.329-.87-3.64-1.07-3.073-1.244-3.073-2.117-3.673-2.845-3.63-1.916-3.612-1.847-3.238-2.067-3.291-2.133-3.207-2.84-2.228-3.205-1.463-3.437-.727-4.176-.188-3.922.574-3.485.713-4.165.328-3.537.421-4.241.552-5.913.86-5.735 1.24-4.807 1.624-4.21 2.23-3.905 3.356-3.313 3.382-1.98 2.722-1.07 2.954-1.243 3.725-1.648 4.227-1.834 3.919-1.557 3.886-1.549 3.805-1.51 3.717-1.422 3.516-1.235 4.373-1.021 4.158-1.062 3.212-.975 3.536-.896 3.078-.644 1.367-.235a2.965 2.965 0 0 1 .974 5.848Zm10.024 94.069.638-.838 1.019-3.312.393-5.319-.077-4.348-.314-3.08-.37-3.281-.678-3.773-.928-3.864-.874-3.817-1.096-5.093-1.167-5.422-1.077-4.137-1.088-3.31-.839-2.907-.617-3.074-.707-3.536-.634-3.399-.576-3.206-.873-4.054-1.099-4.595-.925-4.172-.515-3.894-.198-3.418-.132-3.54-.47-4.539-.406-2.505a3.149 3.149 0 0 1 6.198-1.12l.32 1.502.597 3.05.23 3.557-.067 3.472.013 3.138.197 3.147.643 3.802.981 4.862 1.134 5.637 1.158 4.93.998 3.52.84 3.192.817 2.948.937 3.432 1.01 4.371 1.124 4.998 1.052 4.787.79 4.235.769 4.31.583 3.78.49 3.362.428 3.263.235 4.901-.038 5.192-.728 3.913-1.232 3.144-.683.946a3.226 3.226 0 0 1-5.186-3.838Z"/><path fill="#1d1d1d" d="m694.546 376.179-1.588-.284-3.364-.111-3.583.322-1.807.148a3.26 3.26 0 0 1-.408-6.508l1.903-.09 4.226-.135 3.925.128 1.604.172a3.21 3.21 0 0 1-.908 6.358Z"/><path fill="#1d1d1d" d="m687.863 372.74.08 2.521.18 4.373.192 3.323.162 3.198.067 1.726a2.547 2.547 0 0 1-5.088.238l-.094-1.725-.134-3.145-.19-3.21-.526-4.284-.375-2.495a2.875 2.875 0 0 1 5.726-.52Z"/><path fill="#1d1d1d" d="m675.155 371.044 1.611-.406 3.069-.682 3.877-1.022 2.42-.746a2.943 2.943 0 0 1 1.736 5.624l-1.399.45-3.93 1.066-4.113 1.122-1.581.506a3.074 3.074 0 0 1-1.69-5.912ZM719.147 344.016l1.611-.404 3.147-.834 3.857-1.364 4.113-1.632 4.38-1.137 4.494-.573 4.123-.17 4.049-.071 3.257-.006 3.57.18 3.958.419 3.939.519 4.678.42 4.862.286 4.703.192 4.266-.139 3.44-.4 3.359-.277 3.205-.185 3.266-.584 3.954-.704 3.594-.66 3.3-.634 4.571-.167 4.22.024 3.39.082 3.442.075 3.81-.057 4.164-.119 3.822-.146 4.18.273 3.77.781 3.993 1.213 4.626 1.353 4.255 1.077 3.5 1.352 2.869 1.62 2.798 1.47 2.691 1.262 3.67 2.033 5.406 3.419 5.322 3.699 3.869 2.842 3.579 2.478 1.96 1.374a2.155 2.155 0 0 1-2.357 3.608l-2.046-1.243-3.785-2.333-3.985-2.545-4.269-2.528-3.458-1.837-3.11-1.908-3.189-1.752-2.88-1.244-3.75-1.895-4.632-1.781-4.436-1.087-4.168-1.204-3.471-1.13-3.26-.836-3.71-.431-3.803-.144-4.16-.115-3.806-.05-3.432.086-3.378.101-4.066.106-4.144.128-3.329.364-3.695.338-4.02.284-3.53.249-3.11.013-3.218.088-3.621.27-4.523.257-4.747.079-4.966.077-5.006.038-3.803-.184-3.567-.034-4.491.176-4.428.03-3.902.023-3.704.137-3.634.62-3.714 1.201-3.341 1.217-2.952 1.04-3.15 1.03-1.58.51a3.104 3.104 0 0 1-1.706-5.97ZM762.507 355.96l1.364.244 2.881.402 4.003.25 4.893.121 2.406.03a2.993 2.993 0 0 1-.108 5.986l-1.32-.02-3.664-.108-3.74-.153-3.19-.158-3.167-.302-1.372-.212a3.082 3.082 0 0 1 1.014-6.08Z"/><path fill="#1d1d1d" d="m736.561 449.658 1.354.933 2.766 1.911 2.948 2.303 3.5 3.53 4.736 4.918 6.77 6.25 8.66 7.284 8.815 7.184 7.276 5.73 6.904 5.17 7.01 5.606 5.426 4.668 4.18 3.125 3.594 2.046 3.932 1.64 3.688 1.223 4.686 1.203 7.59 1.2 8.064.927 6.565.997 4.687.73 3.932.58 3.84.76 3.99.583 3.615.167 2.903.222 2.93.61 3.3.841 3.234.675 2.804.302 3.19.118 3.312.049 3.282.084 4.636.416 5.486.585 4.94.36 4.514.216 4.505.14 5.185.104 6.08.3 5.9.636 5.71.81 6.269.9 6.767.714 6.88.619 5.596.57 3.697.206 3.122.006 4.317-.15 6.41-.45 7.682-.462 7.873-.243 7.878-.35 7.83-.858 7.271-1.78 6.178-3.545 5.753-5.671 5.92-7.175 5.742-7.779 4.909-7.808 3.51-7.964 2.345-8.118 1.749-7.845 1.413-7.244 1.229-6.466.89-5.303.713-4.71.61-4.595.542-4.341.49-4.184.266-4.227.178-4.799-.124-5.278-.737-5.955-1.512-6.568-2.163-6.472-2.941-6.155-3.367-5.316-4.25-4.862-5.66-5.09-6.214-4.573-6.54-4.066-6.658-3.318-6.519-2.459-6.709-2.026-7.219-1.54-7.531-1.065-7.747-.81-7.414-.67-6.723-.362-5.709-.198-5.154-.108-5.697.168-6.754.32-7.564.4-7.528.447-7.337.245-6.957.133-5.605.072-4.418.06-4.458.035-4.022.084-3.327.155-3.178.135-4.036.194-5.365.19-2.892.057a2.546 2.546 0 0 1 0-5.092l2.891.056 5.363.187 4.034.19 3.176.128 3.324.142 4.014.061 4.446-.007 4.405-.019 5.583-.072 6.907-.131 7.25-.24 7.548-.448 7.578-.402 6.83-.32 5.862-.171 5.198.108 5.776.201 6.845.371 7.467.676 7.872.827 7.77 1.106 7.496 1.615 6.93 2.095 6.817 2.601 6.96 3.47 6.757 4.22 6.492 4.79 5.964 5.416 4.543 5.23 3.575 5.693 3.115 6.536 2.264 6.8 1.596 6.928.785 6.285.16 5.485-.138 4.926-.315 4.43-.58 4.188-.586 4.34-.625 4.657-.719 4.754-.903 5.389-1.23 6.48-1.432 7.335-1.802 8.057-2.507 8.541-3.73 8.408-5.05 8.037-5.859 7.939-6.185 7.466-6.439 6.154-7.013 3.943-7.757 1.925-8.059.924-7.918.412-7.752.32-7.63.572-6.646.612-4.598.125-3.205-.326-3.744-.404-5.567-.552-6.936-.605-6.892-.697-6.265-.858-5.6-.743-5.665-.543-5.96-.19-5.213.04-4.55.023-4.587.004-5.082-.034-5.396-.138-4.468-.074-3.395.022-3.498-.203-3.459-.346-3.148-.412-3.518-.64-4.344-.992-3.957-.844-3.956-.764-4.083-.99-3.606-.83-3.89-.663-4.66-.72-6.428-.828-8.276-.752-8.195-1.049-5.052-1.253-3.837-1.778-4.034-2.203-3.822-2.34-4.423-3.259-5.358-4.553-6.945-5.476-7.014-5.146-7.412-5.685-8.962-7.095-8.935-7.23-7.128-6.178-4.886-4.517-3.291-2.918-2.83-2.006-2.827-1.817-1.382-.891a2.815 2.815 0 0 1 3.122-4.684ZM810.31 337.888l1.136-.918 3.043-2.082 3.74-2.56 3.776-3.061 3.976-3.29 4.116-3 4.139-2.568 3.968-1.956 4.434-1.129 4.76-.553 4.372-.3 3.742-.245 3.333.013 5.227.774 5.638 1.443 4.024 1.71 3.216 1.581 2.73 2.184 2.339 2.706 2.204 3.282 1.589 3.627-.322 3.504-1.457 3.585-2.322 4.188-2.807 3.919-2.682 2.707-1.38 1.34a2.567 2.567 0 0 1-3.683-3.578l2.244-2.363 3.646-4.602 2.63-4.487.908-3.639-1.648-3.546-3.225-3.94-3.599-2.598-3.647-1.474-5.197-1.273-4.63-.864-2.967-.267-3.646.077-4.18.29-4.255.534-3.755.87-3.54 1.716-3.797 2.507-3.765 2.978-3.805 3.504-3.82 3.562-3.52 2.908-2.757 2.102-1.145.906a2.704 2.704 0 0 1-3.378-4.224Z"/><path fill="#1d1d1d" d="m789.878 502.347-3.522 2.61-7.773 5.621-8.603 6.204-7.614 5.802-6.209 4.951-4.682 4.194-2.6 3.111-.944 1.94-.079.68a2.23 2.23 0 0 1-4.235-1.392l.537-1.193 1.643-2.543 2.992-3.45 4.76-4.514 6.118-5.189 7.502-6.132 8.287-6.512 7.348-6.02 3.318-2.862a3.006 3.006 0 0 1 3.756 4.694Zm-42.317 33.139.57.688 2.31 1.718 5.705 1.598 6.74.332 6.755-1.232 8.02-2.215 7.77-2.759 6.826-3.463 5.58-3.259 4.197-2.479 3.04-2.246 2.94-2.724 3.633-3.676 2.029-2.055a1.846 1.846 0 0 1 2.648 2.572l-1.995 2.088-3.763 3.938-3.281 2.94-3.365 2.297-4.223 2.52-5.707 3.418-7.218 3.778-7.986 3.008-8.37 2.52-7.446 1.602-6.91.226-5.12-.774-3.745-2.404-2.824-2.613-.462-.788a2.23 2.23 0 0 1 3.652-2.556ZM834.546 518.273l-1.27 2.215-2.862 5.834-3.646 8.367-3.853 9.345-3.246 8.677-2.215 7.357-1.204 5.513.45 4.363 2.678 2.979 5.416-1.546 6.172-4.525 4.828-4.385 4.155-4.771 3.339-5.199 2.51-4.843 2.063-4.674 1.784-5.189 1.434-4.875 1.455-4.809.788-2.61a1.752 1.752 0 0 1 3.356 1.006l-.777 2.613-1.422 4.792-1.451 5.036-1.843 5.487-2.089 4.891-2.608 5.195-3.555 5.71-4.328 5.224-4.895 4.768-5.398 4.552-5.31 3.062-4.362.267-3.439-2.375-2.146-3.364-.735-3.348.26-4.15 1.168-5.849 2.145-7.662 3.094-8.873 3.609-9.505 3.366-8.68 2.481-6.222 1.011-2.345a2.846 2.846 0 0 1 5.092 2.546ZM1039.632 507.668l2.198 1.714 5.024 4.081 6.456 6.002 7.185 7.682 6.131 6.903 4.486 5.398 3.178 4.376 2.259 3.844 1.603 3.58.93 3.776-.668 3.57-3.181 2.254-4.67 1.42-5.26.795-5.164-.047-5.138-1.494-5.422-3.02-4.832-4.045-4.097-3.726-3.331-2.582-2.59-2.764-2.03-3.566-1.519-3.217-1.47-2.703-1.73-3.08-.94-1.732a2.24 2.24 0 0 1 3.92-2.173l.971 1.713 1.783 3.254 1.398 2.981 1.24 3.04 1.366 2.906 1.975 2.427 3.385 2.77 4.056 3.597 4.29 3.547 4.638 2.556 4.136 1.21 4.338-.105 4.664-.988 3.93-2.171 1.373-2.936-1.201-3.157-2.058-3.511-3.081-4.115-4.505-5.18-6.205-6.676-7.107-7.219-6.407-5.464-5.209-3.584-2.362-1.477a2.846 2.846 0 0 1 3.264-4.664Z"/><path fill="#1d1d1d" d="m1004.628 528.095-1.274 2.681-3.423 6.3-3.931 7.675-3.012 7.191-2.125 5.934-.907 4.783.247 3.49 1.422 2.464 3.404 1.426 4.328.335 4.124-1.01 3.948-1.815 4.367-3.34 4.504-5.26 3.398-5.302 2.514-5.953 1.803-7.417 1-7.644.331-6.394-.063-5.937-.034-3.28a1.751 1.751 0 0 1 3.502-.043l.045 3.28.082 6.125-.319 6.703-1.034 8.047-1.936 8.016-2.68 6.49-3.64 5.835-5.077 5.993-4.864 3.935-4.639 2.336-4.953 1.592-4.232.352-3.582-.79-2.905-2.33-1.877-2.9-.814-3.193-.148-4.373.88-5.482 2.002-6.228 2.897-7.62 3.575-7.819 2.834-6.252 1.006-2.79a2.846 2.846 0 0 1 5.256 2.189Z"/></svg>